HIERARCHY
ROOT Hips
{
	OFFSET 0.000000 0.000000 0.000000
	CHANNELS 6 Xposition Yposition Zposition Xrotation Yrotation Zrotation
	JOINT LeftUpLeg_virtual
	{
		OFFSET 0.000000 0.000000 0.000000
		CHANNELS 3 Xrotation Yrotation Zrotation
		JOINT LeftUpLeg
		{
			OFFSET 13.026900 -6.336304 -1.092800
			CHANNELS 3 Xrotation Yrotation Zrotation
			JOINT LeftLeg
			{
				OFFSET 0.524474 -46.096886 9.782700
				CHANNELS 3 Xrotation Yrotation Zrotation
				JOINT LeftFoot
				{
					OFFSET -0.524474 -53.427422 -12.948200
					CHANNELS 3 Xrotation Yrotation Zrotation
					JOINT LeftToeBase
					{
						OFFSET 0.192200 -14.009700 16.364100
						CHANNELS 3 Xrotation Yrotation Zrotation
						JOINT LeftToe_End
						{
							OFFSET -1.784700 -0.561700 9.474800
							CHANNELS 3 Xrotation Yrotation Zrotation
							End Site
							{
								OFFSET 0 0 0
							}
						}
					}
				}
			}
		}
	}
	JOINT RightUpLeg_virtual
	{
		OFFSET 0.000000 0.000000 0.000000
		CHANNELS 3 Xrotation Yrotation Zrotation
		JOINT RightUpLeg
		{
			OFFSET -12.883000 -6.336304 -1.092800
			CHANNELS 3 Xrotation Yrotation Zrotation
			JOINT RightLeg
			{
				OFFSET -0.524587 -46.096825 9.782800
				CHANNELS 3 Xrotation Yrotation Zrotation
				JOINT RightFoot
				{
					OFFSET 0.524587 -53.427383 -12.948300
					CHANNELS 3 Xrotation Yrotation Zrotation
					JOINT RightToeBase
					{
						OFFSET -0.192200 -14.009700 16.364100
						CHANNELS 3 Xrotation Yrotation Zrotation
						JOINT RightToe_End
						{
							OFFSET 1.784700 -0.561700 9.474800
							CHANNELS 3 Xrotation Yrotation Zrotation
							End Site
							{
								OFFSET 0 0 0
							}
						}
					}
				}
			}
		}
	}
	JOINT Spine_virtual
	{
		OFFSET 0.000000 0.000000 0.000000
		CHANNELS 3 Xrotation Yrotation Zrotation
		JOINT Spine
		{
			OFFSET 0.072000 7.257294 -0.789700
			CHANNELS 3 Xrotation Yrotation Zrotation
			JOINT Spine1
			{
				OFFSET 0.000000 12.508769 -0.658067
				CHANNELS 3 Xrotation Yrotation Zrotation
				JOINT Spine1_split
				{
					OFFSET 0.000000 12.508769 -0.658067
					CHANNELS 3 Xrotation Yrotation Zrotation
					JOINT Spine2
					{
						OFFSET 0.000000 12.508769 -0.658067
						CHANNELS 3 Xrotation Yrotation Zrotation
						JOINT Neck_virtual
						{
							OFFSET 0.000000 0.000000 0.000000
							CHANNELS 3 Xrotation Yrotation Zrotation
							JOINT Neck
							{
								OFFSET 0.000000 14.033295 7.520400
								CHANNELS 3 Xrotation Yrotation Zrotation
								JOINT Head
								{
									OFFSET 0.000000 8.198502 5.703100
									CHANNELS 3 Xrotation Yrotation Zrotation
									JOINT HeadTop_End
									{
										OFFSET 0.000000 17.760803 13.332701
										CHANNELS 3 Xrotation Yrotation Zrotation
										End Site
										{
											OFFSET 0 0 0
										}
									}
								}
							}
						}
						JOINT LeftShoulder_virtual
						{
							OFFSET 0.000000 0.000000 0.000000
							CHANNELS 3 Xrotation Yrotation Zrotation
							JOINT LeftShoulder
							{
								OFFSET 6.292450 5.785301 -0.669000
								CHANNELS 3 Xrotation Yrotation Zrotation
								JOINT LeftShoulder_split
								{
									OFFSET 6.292450 5.785301 -0.669000
									CHANNELS 3 Xrotation Yrotation Zrotation
									JOINT LeftArm
									{
										OFFSET 13.907140 -6.093903 1.965100
										CHANNELS 3 Xrotation Yrotation Zrotation
										JOINT LeftForeArm
										{
											OFFSET 34.140198 0.000000 0.000000
											CHANNELS 3 Xrotation Yrotation Zrotation
											JOINT LeftHand
											{
												OFFSET 40.960209 0.000000 0.000000
												CHANNELS 3 Xrotation Yrotation Zrotation
												End Site
												{
													OFFSET 0 0 0
												}
											}
										}
									}
								}
							}
						}
						JOINT RightShoulder_virtual
						{
							OFFSET 0.000000 0.000000 0.000000
							CHANNELS 3 Xrotation Yrotation Zrotation
							JOINT RightShoulder
							{
								OFFSET -6.292450 5.785301 -0.669000
								CHANNELS 3 Xrotation Yrotation Zrotation
								JOINT RightShoulder_split
								{
									OFFSET -6.292450 5.785301 -0.669000
									CHANNELS 3 Xrotation Yrotation Zrotation
									JOINT RightArm
									{
										OFFSET -13.907140 -6.093903 1.965100
										CHANNELS 3 Xrotation Yrotation Zrotation
										JOINT RightForeArm
										{
											OFFSET -34.140198 0.000000 0.000000
											CHANNELS 3 Xrotation Yrotation Zrotation
											JOINT RightHand
											{
												OFFSET -40.960209 0.000000 0.000000
												CHANNELS 3 Xrotation Yrotation Zrotation
												End Site
												{
													OFFSET 0 0 0
												}
											}
										}
									}
								}
							}
						}
					}
				}
			}
		}
	}
}
MOTION
Frames: 7
Frame Time: 0.03333333
-262.311829 117.392601 -10.646290 0.000000 0.000000 0.000000 6.084992 2.013956 2.296404 -27.099817 16.562048 10.845426 13.099485 2.852641 5.954757 9.743769 -2.516008 -12.165558 -2.330052 -2.210658 -4.496806 0.000000 0.000000 0.000000 6.230377 3.897113 1.885974 -7.072535 -7.778611 -7.603845 7.620646 8.537097 2.890060 -7.803520 -8.041142 7.599080 3.240948 6.071275 -14.562173 0.000000 0.000000 0.000000 6.142513 4.631308 1.188778 -1.105204 2.528060 3.169431 2.375505 -0.355702 0.969330 0.136947 -0.273317 -0.129206 0.000000 0.000000 0.000000 2.976463 1.748865 0.222989 -2.714848 1.332578 -5.117518 -20.595846 -36.281780 -34.456525 0.000000 0.000000 0.000000 2.443230 -0.444665 -0.531126 0.635423 -9.047765 -13.125416 -2.132215 -0.974894 -1.893070 10.751938 -7.394329 -66.499234 0.070999 -10.567715 2.613634 0.000000 0.000000 0.000000 3.933561 1.153555 0.817182 -2.610438 1.247369 14.227826 10.140774 2.413403 -0.220154 9.083172 -0.521514 62.831443 1.052836 22.441797 -0.813542 0.000000 0.000000 0.000000 
-262.311920 117.319481 -10.403240 0.000000 0.000000 0.000000 6.311511 1.681931 2.302571 -27.199675 16.436341 10.705561 13.297882 3.114310 6.019705 9.585108 -2.534632 -11.648996 -2.439110 -2.195224 -4.415743 0.000000 0.000000 0.000000 6.348135 3.471037 1.892990 -7.297286 -7.944325 -7.514200 7.908005 8.928410 2.694682 -7.906592 -7.645381 6.999053 3.141366 6.218606 -14.562783 0.000000 0.000000 0.000000 6.360039 4.292218 1.154768 -1.237741 2.701913 3.346031 2.434546 -0.322081 0.938344 0.213175 -0.336803 -0.113336 0.000000 0.000000 0.000000 2.810142 1.725699 0.248758 -2.895381 1.281673 -5.010986 -21.224039 -37.439501 -36.941949 0.000000 0.000000 0.000000 2.311532 -0.469129 -0.595682 0.655033 -7.730681 -12.920389 -2.000512 -1.222608 -1.597666 9.583926 -8.386239 -65.728468 0.228705 -12.130367 2.651126 0.000000 0.000000 0.000000 3.978944 1.176553 0.783056 -2.593215 0.995312 13.268971 9.869649 2.488590 -0.135399 9.588246 1.196910 61.835581 1.065492 24.886783 -1.098086 0.000000 0.000000 0.000000 
-262.348907 117.346474 -10.119755 0.000000 0.000000 0.000000 6.617698 1.378301 2.326639 -27.440160 16.310896 10.672926 13.574286 3.381818 6.063462 9.636031 -2.620292 -11.382449 -2.696152 -2.169300 -4.194153 0.000000 0.000000 0.000000 6.557702 3.108139 1.891392 -7.403503 -8.203196 -7.371957 7.919274 9.265435 2.485182 -8.045447 -7.198775 6.415906 3.015627 6.390173 -14.551916 0.000000 0.000000 0.000000 6.696906 3.982858 1.151466 -1.408652 2.777035 3.394476 2.520831 -0.257766 0.955940 0.293634 -0.391049 -0.100833 0.000000 0.000000 0.000000 2.713786 1.760474 0.360875 -3.051682 1.113912 -4.820411 -21.994264 -38.572827 -39.263435 0.000000 0.000000 0.000000 2.192344 -0.424726 -0.536166 0.698570 -6.161742 -12.195135 -1.664212 -1.424978 -1.242430 8.056673 -8.686352 -65.301683 0.498915 -17.235924 2.805299 0.000000 0.000000 0.000000 3.996908 1.212171 0.804894 -2.553201 0.523654 12.034600 9.809601 2.630515 -0.118397 10.117105 3.133881 60.595553 1.160933 29.955495 -1.480712 0.000000 0.000000 0.000000 
-262.428406 117.472572 -9.792583 0.000000 0.000000 0.000000 7.052538 1.192855 2.320916 -27.879010 16.275970 10.765556 13.898718 3.766328 6.095242 9.807172 -2.707080 -11.123388 -2.845163 -2.145606 -3.816892 0.000000 0.000000 0.000000 6.923768 2.940403 1.857176 -7.441347 -8.548238 -7.128233 7.650226 9.452345 2.276355 -8.107769 -6.788181 5.761748 2.770306 6.595172 -14.464377 0.000000 0.000000 0.000000 7.192213 3.673368 1.184285 -1.589566 2.746891 3.341108 2.621988 -0.163712 1.017542 0.337431 -0.400877 -0.092747 0.000000 0.000000 0.000000 2.714393 1.824227 0.534401 -3.225935 0.885474 -4.560465 -22.820051 -39.414314 -41.189411 0.000000 0.000000 0.000000 2.071641 -0.321852 -0.377385 0.733996 -4.483094 -11.113029 -1.279993 -1.589886 -0.769080 5.965751 -8.281136 -65.240376 0.946503 -25.532391 3.087710 0.000000 0.000000 0.000000 3.966640 1.247157 0.863435 -2.547329 -0.129093 10.502639 9.915264 2.857522 -0.131619 10.503810 4.846997 59.262942 1.350751 37.759745 -1.957592 0.000000 0.000000 0.000000 
-262.532623 117.659065 -9.478886 0.000000 0.000000 0.000000 7.672442 1.110201 2.276997 -28.693430 16.233567 10.971013 14.294999 4.145647 6.142512 10.041997 -2.781006 -10.824088 -2.647847 -2.117807 -3.357423 0.000000 0.000000 0.000000 7.526173 2.970566 1.796568 -7.621002 -9.041317 -6.857242 7.279171 9.451255 2.083690 -8.089014 -6.508022 4.886575 2.625018 6.812246 -14.250472 0.000000 0.000000 0.000000 7.931091 3.297674 1.232725 -1.770170 2.633398 3.232348 2.740129 -0.071182 1.089169 0.317070 -0.377886 -0.067901 0.000000 0.000000 0.000000 2.799111 1.857339 0.722446 -3.555384 0.668027 -4.245731 -23.637919 -39.591038 -42.479074 0.000000 0.000000 0.000000 1.943269 -0.206982 -0.205947 0.735408 -2.928642 -9.909552 -0.973031 -1.644814 -0.396475 2.963285 -7.508405 -65.435138 1.525220 -35.356987 3.467692 0.000000 0.000000 0.000000 3.908257 1.255772 0.922520 -2.627543 -0.859837 8.788406 10.100732 3.044945 -0.104668 10.396689 5.998799 58.020148 1.626057 47.500076 -2.489809 0.000000 0.000000 0.000000 
-262.696625 117.771553 -9.292271 0.000000 0.000000 0.000000 8.485299 1.138880 2.237072 -30.025535 16.103349 11.233833 14.817008 4.428440 6.209044 10.194611 -2.864861 -10.425285 -2.101532 -2.072107 -2.897883 0.000000 0.000000 0.000000 8.364957 3.087130 1.771501 -8.259008 -9.715406 -6.680900 7.072180 9.278008 1.919921 -8.008318 -6.374287 3.826564 2.678537 7.024290 -13.926739 0.000000 0.000000 0.000000 8.904315 2.860219 1.312604 -1.903942 2.472637 3.100885 2.881886 -0.005905 1.120495 0.268859 -0.346501 -0.060320 0.000000 0.000000 0.000000 2.937645 1.826618 0.859716 -4.099659 0.526611 -3.896963 -24.363799 -38.802530 -42.926841 0.000000 0.000000 0.000000 1.859698 -0.134856 -0.116536 0.711786 -1.787566 -8.896408 -0.844531 -1.706835 -0.128669 -1.012676 -6.781831 -65.635912 1.958851 -44.365132 3.755512 0.000000 0.000000 0.000000 3.871548 1.223096 0.934945 -2.800921 -1.510738 7.024419 10.293968 3.261976 0.025369 9.472683 6.501671 56.928418 1.908883 57.584123 -2.977890 0.000000 0.000000 0.000000 
-262.901398 117.621788 -9.236301 0.000000 0.000000 0.000000 9.507828 1.180643 2.275143 -31.992637 15.893092 11.446312 15.639738 4.532474 6.279380 10.271617 -2.962257 -9.819613 -1.465617 -1.991068 -2.563603 0.000000 0.000000 0.000000 9.391345 3.247685 1.844476 -9.725782 -10.543988 -6.748108 7.510726 9.049373 1.782718 -8.055991 -6.335673 2.726424 2.981969 7.216348 -13.565894 0.000000 0.000000 0.000000 10.062360 2.468171 1.446879 -1.922103 2.317162 2.964737 3.077270 -0.004934 1.062691 0.224029 -0.326809 -0.057644 0.000000 0.000000 0.000000 3.132552 1.717291 0.894110 -4.875520 0.495348 -3.558435 -24.904678 -37.103059 -42.437219 0.000000 0.000000 0.000000 1.857081 -0.143491 -0.181296 0.664278 -1.239475 -8.189021 -0.938225 -1.889464 0.079949 -5.981580 -6.262658 -65.663000 1.715258 -50.629720 3.562676 0.000000 0.000000 0.000000 3.919962 1.156358 0.857774 -3.026004 -1.923258 5.442493 10.497763 3.509744 0.193050 7.338061 6.399147 55.915753 2.080701 66.335740 -3.253144 0.000000 0.000000 0.000000 
